<svg width="400" height="400" viewBox="0 0 400 400" fill="none" xmlns="http://www.w3.org/2000/svg">
<path d="M397.043 146.555C386.091 111.763 349.861 92.6286 316.158 103.937L263.499 121.768V66.1031C263.499 29.5736 234.854 0 199.464 0C164.078 0 135.43 29.5705 135.43 66.1031V123.072L84.0344 105.678C50.3317 94.372 14.1021 113.505 3.14967 148.296C-7.80272 183.087 10.7311 220.487 44.4338 231.794L97.0931 249.625L65.077 294.851C44.4338 324.421 50.7545 365.738 79.3996 387.481C108.045 408.791 148.068 402.266 169.131 372.696L201.57 326.599L233.586 371.825C254.229 401.396 294.67 407.921 323.318 386.611C351.963 365.3 358.283 323.553 337.64 293.98L305.201 247.884L356.597 230.49C389.039 218.747 407.573 181.347 397.041 146.557L397.043 146.555Z" fill="#FF6300"/>
</svg>
